<svg width="200" height="200" viewBox="0 0 200 200" xmlns="http://www.w3.org/2000/svg">
  <!-- Antennas -->
  <line x1="80" y1="50" x2="90" y2="70" stroke="#4a90e2" stroke-width="4" />
  <line x1="120" y1="50" x2="110" y2="70" stroke="#4a90e2" stroke-width="4" />
  <circle cx="80" cy="50" r="5" fill="#f5a623" />
  <circle cx="120" cy="50" r="5" fill="#f5a623" />
  <!-- Head Fill -->
  <rect x="60" y="60" width="80" height="80" rx="15" fill="#4a90e2" />
  <!-- Head Border (Loop Arrow) -->
  <path d="M 100 60 H 125 A 15 15 0 0 1 140 75 V 125 A 15 15 0 0 1 125 140 H 75 A 15 15 0 0 1 60 125 V 75 A 15 15 0 0 1 75 60 H 95" stroke="#f5a623" stroke-width="6" fill="none" stroke-linecap="round" />
  <path d="M 90 55 L 100 60 L 90 65" stroke="#f5a623" stroke-width="6" fill="none" stroke-linecap="round" stroke-linejoin="round" />
  <!-- Eyes -->
  <circle cx="85" cy="90" r="10" fill="white" />
  <circle cx="85" cy="90" r="5" fill="#333" />
  <circle cx="115" cy="90" r="10" fill="white" />
  <circle cx="115" cy="90" r="5" fill="#333" />
  <!-- Mouth (Happy) -->
  <path d="M 85 115 Q 100 130 115 115" stroke="white" stroke-width="4" fill="none" stroke-linecap="round" />
</svg>
